# xmcd CD database file
#
# Track frame offsets:
#	150
#	13575
#	29430
#	40085
#	49802
#	61220
#	75295
#	91847
#	105525
#
# Disc length: 1540 seconds
#
# Revision: 0
# Processed by: cddbd v1.5.2PL0 Copyright (c) Steve Scherf et al.
# Submitted via: CDex 1.70beta2
#
DISCID=5e060209
DTITLE=Various Artist - Branson USA Volume 3
DYEAR=1900
DGENRE=Country
TTITLE0=Glen Campbell - Southern Nights
TTITLE1=Ray Stevens - Everything Is Beautiful
TTITLE2=Barbara Mandrell - Sleeping Single In A Double Bed
TTITLE3=Mel Tillis - I Ain't Never
TTITLE4=Loretta Lynn - Love Is The Foundation
TTITLE5=Jim Stafford - Spiders And Snakes
TTITLE6=Ronnie Milsap - It Was Almost Like A Song
TTITLE7=Conway Twitty -  You've Never Been This Far Before
TTITLE8=The Statler Brothers - Do You Know You Are My Sunshine
EXTD=
EXTT0=
EXTT1=
EXTT2=
EXTT3=
EXTT4=
EXTT5=
EXTT6=
EXTT7=
EXTT8=
PLAYORDER=
